<svg width="218" height="47" viewBox="0 0 218 47" fill="none" xmlns="http://www.w3.org/2000/svg">
<path d="M15.12 45H2.88V11.4H15.12C25.584 11.4 32.544 18.264 32.544 28.152C32.544 37.992 25.584 45 15.12 45ZM10.08 17.4V39H15.12C21.552 39 25.152 34.536 25.152 28.152C25.152 21.72 21.552 17.4 15.12 17.4H10.08ZM36.9113 45V11.4H59.4713V17.592H44.1113V25.128H56.5913V31.032H44.1113V38.808H59.9993V45H36.9113ZM78.1774 45.288C68.1934 45.288 62.1454 38.52 62.1454 28.2C62.1454 17.88 68.4334 11.112 78.6094 11.112C86.5774 11.112 92.1934 16.104 93.0574 23.4H85.7614C84.8974 19.656 82.2094 17.208 78.2254 17.208C72.7534 17.208 69.4894 21.72 69.4894 28.2C69.4894 34.632 72.7054 39.192 78.1294 39.192C82.2094 39.192 84.8974 36.744 85.7614 33H93.0094C92.1934 40.296 86.3854 45.288 78.1774 45.288Z" fill="black"/>
<path d="M123.88 45V11.4H146.056V17.592H131.08V25.464H143.368V31.368H131.08V45H123.88ZM149.989 45V11.4H163.669C171.061 11.4 176.005 15.768 176.005 22.584C176.005 26.904 173.749 30.36 170.245 32.04L176.869 45H168.901L163.237 33.72H157.189V45H149.989ZM163.093 17.4H157.189V27.72H163.093C166.501 27.72 168.661 25.704 168.661 22.584C168.661 19.416 166.501 17.4 163.093 17.4ZM185.116 45H177.676L189.964 11.4H198.604L210.796 45H203.068L200.476 37.656H187.708L185.116 45ZM194.044 19.08L189.628 31.848H198.508L194.044 19.08Z" fill="black"/>
<path d="M118 14.9756L112.5 21.7736L114.75 33.3868L118 45H108H99.5L103.5 21.7736L97 16.1086C97 16.1086 102.967 10.736 108 11.0101C112.721 11.2673 118 14.9756 118 14.9756Z" stroke="black"/>
<path d="M108.353 14C106.746 14 102 16.2857 102 16.2857C102 16.2857 106.868 18 108.353 18C109.837 18 114 16.2857 114 16.2857C114 16.2857 109.96 14 108.353 14Z" fill="#00C49A" stroke="black"/>
</svg>
